{"title":"Bad.Teacher.R5.Line.XVID.AC3-BBRG","uid":6589539,"size":1394435885,"categoryP":"video","categoryS":"movies","magnet":"?xt=urn:btih:958cead1aa36d7b499b544073dd91318e36a568d&amp;dn=Bad.Teacher.R5.Line.XVID.AC3-BBRG&amp;tr=udp%3A%2F%2Ftracker.openbittorrent.com%3A80&amp;tr=udp%3A%2F%2Fopen.demonii.com%3A1337&amp;tr=udp%3A%2F%2Ftracker.coppersurfer.tk%3A6969&amp;tr=udp%3A%2F%2Fexodus.desync.com%3A6969","seeders":0,"leechers":1,"uploader":"TvTeam","files":4,"time":1312763890,"description":". \n  &lt;a href=&quot;\nhttp://www.torrenting.com/&quot; rel=&quot;nofollow&quot; target=&quot;_NEW&quot;&gt;\nhttp://www.torrenting.com/&lt;/a&gt;        :     Greatest Movie Tracker on The Net!!!\n &lt;a href=&quot;\nhttp://www.Torrenting.com&quot; rel=&quot;nofollow&quot; target=&quot;_NEW&quot;&gt;\nhttp://www.Torrenting.com&lt;/a&gt;          :     Once &amp; For all ;)\n\n\n               www . Torrenting . Com \n\n(((((((((((((= Enjoy No RAR releases =))))))))))))))))))))\n\n\n...................................NFO:....................................\n\n.\n ______ ______                         ______              ___________\n ___  /____  /___  ______________      ___  /________________  /___  /_____________________ ______________ _\n __  __ \\_  /_  / / /  _ \\_  ___/________  __ \\_  ___/  __ \\  __/_  __ \\  _ \\_  ___/_  ___/ __  ___/_  __ `/\n _  /_/ /  / / /_/ //  __/(__  )_/_____/  /_/ /  /   / /_/ / /_ _  / / /  __/  /   _(__  )___  /   _  /_/ /\n /_.___//_/  \\__,_/ \\___//____/        /_.___//_/    \\____/\\__/ /_/ /_/\\___//_/    /____/_(_)_/    _\\__, /\n                                                                                                   /____/\n                                     ___________                    ___________\n                              ______ ___  /__  /____  _____________ __  /__&lt;  /\n                              _  __ `/_  /__  /__  / / /  ___/  __ `/  __/_  /\n                              / /_/ /_  / _  / _  /_/ // /__ / /_/ // /_ _  /\n                              \\__,_/ /_/  /_/  _\\__, / \\___/ \\__,_/ \\__/ /_/\n                                               /____/\n\n\n\n\n\n\nGeneral\nRELEASE DATE 5/8/2011\nComplete name                    : Bad.Teacher.R5.Line.XVID.AC3-BBRG.avi\nFormat                           : AVI\nFormat/Info                      : Audio Video Interleave\nFile size                        : 1.30 GiB\nDuration                         : 1h 28mn\nOverall bit rate                 : 2 108 Kbps\nWriting library                  : VirtualDub build 30091/release\n\nVideo\nID                               : 0\nFormat                           : MPEG-4 Visual\nFormat profile                   : Advanced Simple@L5\nFormat settings, BVOP            : 2\nFormat settings, QPel            : No\nFormat settings, GMC             : No warppoints\nFormat settings, Matrix          : Default (H.263)\nMuxing mode                      : Packed bitstream\nCodec ID                         : XVID\nCodec ID/Hint                    : XviD\nDuration                         : 1h 28mn\nBit rate                         : 1 650 Kbps\nWidth                            : 720 pixels\nHeight                           : 384 pixels\nDisplay aspect ratio             : 1.875\nFrame rate                       : 25.000 fps\nColor space                      : YUV\nChroma subsampling               : 4:2:0\nBit depth                        : 8 bits\nScan type                        : Progressive\nCompression mode                 : Lossy\nBits/(Pixel*Frame)               : 0.239\nStream size                      : 1.02 GiB (78%)\nWriting library                  : XviD 1.2.1 (UTC 2008-12-04)\n\nAudio\nID                               : 1\nFormat                           : AC-3\nFormat/Info                      : Audio Coding 3\nMode extension                   : CM (complete main)\nCodec ID                         : 2000\nDuration                         : 1h 28mn\nBit rate mode                    : Constant\nBit rate                         : 448 Kbps\nChannel(s)                       : 6 channels\nChannel positions                : Front: L C R, Side: L R, LFE\nSampling rate                    : 48.0 KHz\nBit depth                        : 16 bits\nCompression mode                 : Lossy\nStream size                      : 283 MiB (21%)\nAlignment                        : Aligned on interleaves\nInterleave, duration             : 40 ms (1.00 video frame)\nInterleave, preload duration     : 512 ms\n\nENCODER:allycat1","torrent":{"xt":"urn:btih:958cead1aa36d7b499b544073dd91318e36a568d","amp;dn":"Bad.Teacher.R5.Line.XVID.AC3-BBRG","amp;tr":["udp%3A%2F%2Ftracker.openbittorrent.com%3A80","udp%3A%2F%2Fopen.demonii.com%3A1337","udp%3A%2F%2Ftracker.coppersurfer.tk%3A6969","udp%3A%2F%2Fexodus.desync.com%3A6969"],"infoHash":"958cead1aa36d7b499b544073dd91318e36a568d","infoHashBuffer":{"type":"Buffer","data":[149,140,234,209,170,54,215,180,153,181,68,7,61,217,19,24,227,106,86,141]},"announce":[],"urlList":[]}}